<svg xmlns="http://www.w3.org/2000/svg" viewBox="0 0 1560 940" width="1560" height="940">
  <defs>
    <marker id="arrowA" markerWidth="10" markerHeight="7" refX="9" refY="3.5" orient="auto">
      <polygon points="0 0, 10 3.5, 0 7" fill="#7c3aed"/>
    </marker>
    <marker id="arrowB" markerWidth="10" markerHeight="7" refX="9" refY="3.5" orient="auto">
      <polygon points="0 0, 10 3.5, 0 7" fill="#10b981"/>
    </marker>
    <marker id="arrowC" markerWidth="10" markerHeight="7" refX="9" refY="3.5" orient="auto">
      <polygon points="0 0, 10 3.5, 0 7" fill="#2563eb"/>
    </marker>
    <marker id="arrowE" markerWidth="10" markerHeight="7" refX="9" refY="3.5" orient="auto">
      <polygon points="0 0, 10 3.5, 0 7" fill="#f97316"/>
    </marker>
    <marker id="arrowF" markerWidth="10" markerHeight="7" refX="9" refY="3.5" orient="auto">
      <polygon points="0 0, 10 3.5, 0 7" fill="#7c3aed"/>
    </marker>
    <marker id="arrowG" markerWidth="10" markerHeight="7" refX="9" refY="3.5" orient="auto">
      <polygon points="0 0, 10 3.5, 0 7" fill="#ef4444"/>
    </marker>
    <marker id="arrowH" markerWidth="10" markerHeight="7" refX="9" refY="3.5" orient="auto">
      <polygon points="0 0, 10 3.5, 0 7" fill="#6b7280"/>
    </marker>
    <filter id="shadowSoft" x="-20%" y="-20%" width="140%" height="160%">
      <feDropShadow dx="0" dy="3" stdDeviation="6" flood-color="#0f172a" flood-opacity="0.12"/>
    </filter>
    <filter id="shadowGlass" x="-20%" y="-20%" width="140%" height="160%">
      <feDropShadow dx="0" dy="10" stdDeviation="16" flood-color="#020617" flood-opacity="0.28"/>
    </filter>
    <style>
    text { font-family: 'Helvetica Neue', Helvetica, Arial, 'PingFang SC', 'Microsoft YaHei', 'Microsoft JhengHei', 'SimHei', sans-serif; }
    .title { font-size: 30px; font-weight: 700; fill: #111827; }
    .subtitle { font-size: 14px; font-weight: 500; fill: #6b7280; }
    .section { font-size: 13px; font-weight: 700; fill: #2563eb; letter-spacing: 1.4px; }
    .section-sub { font-size: 12px; font-weight: 500; fill: #94a3b8; }
    .node-title { font-size: 18px; font-weight: 700; fill: #111827; }
    .node-sub { font-size: 12px; font-weight: 500; fill: #6b7280; }
    .node-type { font-size: 12px; font-weight: 700; fill: #9ca3af; letter-spacing: 0.08em; }
    .arrow-label { font-size: 12px; font-weight: 600; fill: #6b7280; }
    .legend { font-size: 12px; font-weight: 500; fill: #6b7280; }
    .footnote { font-size: 12px; font-weight: 500; fill: #94a3b8; }
    </style>
  </defs>
  <rect width="1560.0" height="940.0" fill="#ffffff"/>
  <text x="780.0" y="56" text-anchor="middle" class="title">Recommended HMI Server Architecture</text>
  <text x="780.0" y="82" text-anchor="middle" class="subtitle">Recommended for single-site edge deployment now, with room to grow later.</text>
  <rect x="40.0" y="120.0" width="1480.0" height="140.0" rx="16.0" fill="#f8fbff" stroke="#bfdbfe" stroke-width="1.4" stroke-dasharray="6 5"/>
  <text x="58.0" y="144.0" class="section">ACCESS LAYER</text>
  <text x="58.0" y="164.0" class="section-sub">Web and desktop clients enter through HTTPS / WSS boundary</text>
  <rect x="40.0" y="300.0" width="700.0" height="390.0" rx="16.0" fill="#fcfaff" stroke="#ddd6fe" stroke-width="1.4" stroke-dasharray="6 5"/>
  <text x="58.0" y="324.0" class="section">RUNTIME LAYER</text>
  <text x="58.0" y="344.0" class="section-sub">Recommended implementation: Drogon-based C++ runtime service</text>
  <rect x="820.0" y="300.0" width="700.0" height="390.0" rx="16.0" fill="#fbfffb" stroke="#bbf7d0" stroke-width="1.4" stroke-dasharray="6 5"/>
  <text x="838.0" y="324.0" class="section">DEVICE INTEGRATION / OT EDGE</text>
  <text x="838.0" y="344.0" class="section-sub">Prefer standard protocols first, bridge legacy protocols behind a stable contract</text>
  <rect x="40.0" y="730.0" width="1480.0" height="150.0" rx="16.0" fill="#fffdf8" stroke="#fed7aa" stroke-width="1.4" stroke-dasharray="6 5"/>
  <text x="58.0" y="754.0" class="section">DATA AND OPERATIONS</text>
  <text x="58.0" y="774.0" class="section-sub">State, audit, observability, deployment, and secrets/config</text>
  <path d="M 350.0,211.0 L 370.4,211.0 L 370.4,271.0 L 869.6,271.0 L 869.6,211.0 L 890.0,211.0" fill="none" stroke="#2563eb" stroke-width="2.4" marker-end="url(#arrowC)"/>
  <path d="M 660.0,211.0 L 890.0,211.0" fill="none" stroke="#2563eb" stroke-width="2.4" marker-end="url(#arrowC)"/>
  <path d="M 1020.0,252.0 L 1020.0,272.4 L 235.0,272.4 L 235.0,390.0" fill="none" stroke="#2563eb" stroke-width="2.4" marker-end="url(#arrowC)"/>
  <path d="M 1020.0,252.0 L 1020.0,272.4 L 535.0,272.4 L 535.0,390.0" fill="none" stroke="#2563eb" stroke-width="2.4" marker-end="url(#arrowC)"/>
  <path d="M 235.0,474.0 L 235.0,494.4 L 385.0,514.6 L 385.0,535.0" fill="none" stroke="#6b7280" stroke-width="2.4" marker-end="url(#arrowH)"/>
  <path d="M 535.0,474.0 L 535.0,494.4 L 385.0,514.6 L 385.0,535.0" fill="none" stroke="#6b7280" stroke-width="2.4" marker-end="url(#arrowH)"/>
  <path d="M 565.0,583.0 L 585.4,583.0 L 879.6,422.0 L 900.0,422.0" fill="none" stroke="#f97316" stroke-width="2.4" marker-end="url(#arrowE)"/>
  <path d="M 565.0,583.0 L 1159.6,583.0 L 1159.6,422.0 L 1180.0,422.0" fill="none" stroke="#f97316" stroke-width="2.4" marker-end="url(#arrowE)"/>
  <path d="M 565.0,583.0 L 585.4,583.0 L 1017.6,567.0 L 1038.0,567.0" fill="none" stroke="#f97316" stroke-width="2.4" marker-end="url(#arrowE)"/>
  <path d="M 1025.0,464.0 L 1025.0,484.4 L 1172.5,484.4 L 1172.5,630.0" fill="none" stroke="#f97316" stroke-width="2.4" marker-end="url(#arrowE)"/>
  <path d="M 1305.0,464.0 L 1305.0,484.4 L 1172.5,484.4 L 1172.5,630.0" fill="none" stroke="#f97316" stroke-width="2.4" marker-end="url(#arrowE)"/>
  <path d="M 1165.5,609.0 L 1165.5,629.4 L 1172.5,629.4 L 1172.5,630.0" fill="none" stroke="#f97316" stroke-width="2.4" marker-end="url(#arrowE)"/>
  <path d="M 385.0,631.0 L 385.0,651.4 L 275.0,651.4 L 275.0,770.0" fill="none" stroke="#10b981" stroke-width="2.4" marker-end="url(#arrowB)"/>
  <path d="M 235.0,474.0 L 235.0,494.4 L 655.0,494.4 L 655.0,772.0" fill="none" stroke="#10b981" stroke-width="2.4" marker-end="url(#arrowB)"/>
  <path d="M 1070.0,772.0 L 1070.0,751.6 L 235.0,751.6 L 235.0,474.0" fill="none" stroke="#10b981" stroke-width="2.4" marker-end="url(#arrowB)" stroke-dasharray="6,4"/>
  <path d="M 1070.0,772.0 L 1070.0,751.6 L 1305.0,751.6 L 1305.0,464.0" fill="none" stroke="#10b981" stroke-width="2.4" marker-end="url(#arrowB)" stroke-dasharray="6,4"/>
  <path d="M 1290.0,810.0 L 1230.4,810.0 L 1230.4,814.0 L 1210.0,814.0" fill="none" stroke="#10b981" stroke-width="2.4" marker-end="url(#arrowB)"/>
  <rect x="120.0" y="175.0" width="230.0" height="72.0" rx="10.0" fill="#eff6ff" stroke="#60a5fa" stroke-width="1.8" filter="url(#shadowSoft)"/>
  <text x="235.0" y="193.0" text-anchor="middle" class="node-type">BROWSER</text>
  <text x="235.0" y="217.0" text-anchor="middle" class="node-title">Web Client</text>
  <rect x="430.0" y="175.0" width="230.0" height="72.0" rx="10.0" fill="#f0fdfa" stroke="#14b8a6" stroke-width="1.8" filter="url(#shadowSoft)"/>
  <text x="545.0" y="193.0" text-anchor="middle" class="node-type">DESKTOP</text>
  <text x="545.0" y="217.0" text-anchor="middle" class="node-title">QML Client</text>
  <path d="M 912.0 170.0 L 1128.0 170.0 L 1150.0 211.0 L 1128.0 252.0 L 912.0 252.0 L 890.0 211.0 Z" fill="#fff7ed" stroke="#f59e0b" stroke-width="2.0" filter="url(#shadowSoft)"/>
  <text x="1020.0" y="188.0" text-anchor="middle" class="node-type">TLS / ROUTING / WSS</text>
  <text x="1020.0" y="217.0" text-anchor="middle" class="node-title">Traefik Entry</text>
  <text x="1020.0" y="239.0" text-anchor="middle" class="node-sub">reverse proxy and edge boundary</text>
  <rect x="110.0" y="390.0" width="250.0" height="84.0" rx="10.0" fill="#eff6ff" stroke="#2563eb" stroke-width="1.8" filter="url(#shadowSoft)"/>
  <text x="235.0" y="408.0" text-anchor="middle" class="node-type">DROGON C++</text>
  <text x="235.0" y="438.0" text-anchor="middle" class="node-title">Runtime API Service</text>
  <text x="235.0" y="460.0" text-anchor="middle" class="node-sub">REST, auth, command entry</text>
  <path d="M 432.0 390.0 L 638.0 390.0 L 660.0 432.0 L 638.0 474.0 L 432.0 474.0 L 410.0 432.0 Z" fill="#ecfdf5" stroke="#10b981" stroke-width="2.0" filter="url(#shadowSoft)"/>
  <text x="535.0" y="408.0" text-anchor="middle" class="node-type">REAL-TIME</text>
  <text x="535.0" y="438.0" text-anchor="middle" class="node-title">WebSocket Session Hub</text>
  <text x="535.0" y="460.0" text-anchor="middle" class="node-sub">state delta, alarm, event push</text>
  <rect x="205.0" y="535.0" width="360.0" height="96.0" rx="10.0" fill="#faf5ff" stroke="#8b5cf6" stroke-width="2.0" filter="url(#shadowSoft)"/>
  <rect x="211.0" y="541.0" width="348.0" height="84.0" rx="7.0" fill="none" stroke="#8b5cf6" stroke-width="1.2" opacity="0.65"/>
  <text x="385.0" y="553.0" text-anchor="middle" class="node-type">DOMAIN</text>
  <text x="385.0" y="589.0" text-anchor="middle" class="node-title">Runtime Core / State Model</text>
  <text x="385.0" y="611.0" text-anchor="middle" class="node-sub">semantic state, policy, orchestration</text>
  <rect x="900.0" y="380.0" width="250.0" height="84.0" rx="10.0" fill="#f0fdf4" stroke="#22c55e" stroke-width="1.8" filter="url(#shadowSoft)"/>
  <text x="1025.0" y="398.0" text-anchor="middle" class="node-type">PRIMARY</text>
  <text x="1025.0" y="428.0" text-anchor="middle" class="node-title">OPC UA Adapter</text>
  <text x="1025.0" y="450.0" text-anchor="middle" class="node-sub">standard telemetry and command path</text>
  <rect x="1180.0" y="380.0" width="250.0" height="84.0" rx="10.0" fill="#eff6ff" stroke="#3b82f6" stroke-width="1.8" filter="url(#shadowSoft)"/>
  <text x="1305.0" y="398.0" text-anchor="middle" class="node-type">NEURON / EDGE</text>
  <text x="1305.0" y="428.0" text-anchor="middle" class="node-title">Industrial Gateway</text>
  <text x="1305.0" y="450.0" text-anchor="middle" class="node-sub">Modbus, S7, EtherNet/IP bridge</text>
  <rect x="1038.0" y="525.0" width="255.0" height="84.0" rx="10.0" fill="#fff7ed" stroke="#f59e0b" stroke-width="1.8" filter="url(#shadowSoft)"/>
  <text x="1165.5" y="543.0" text-anchor="middle" class="node-type">FOCAS / LEGACY</text>
  <text x="1165.5" y="573.0" text-anchor="middle" class="node-title">Vendor Adapter Service</text>
  <text x="1165.5" y="595.0" text-anchor="middle" class="node-sub">fallback when standards are not enough</text>
  <rect x="1000.0" y="630.0" width="345.0" height="88.0" rx="10.0" fill="#ffffff" stroke="#d1d5db" stroke-width="1.8" filter="url(#shadowSoft)"/>
  <text x="1172.5" y="648.0" text-anchor="middle" class="node-type">OT ASSETS</text>
  <text x="1172.5" y="680.0" text-anchor="middle" class="node-title">CNC / PLC / IPC Devices</text>
  <text x="1172.5" y="702.0" text-anchor="middle" class="node-sub">controllers, machine signals, alarms, programs</text>
  <ellipse cx="275.0" cy="781.0" rx="57.5" ry="11.0" fill="#eff6ff" stroke="#2563eb" stroke-width="2.2"/>
  <rect x="160.0" y="781.0" width="230.0" height="66.0" fill="#eff6ff" stroke="#2563eb" stroke-width="2.2"/>
  <ellipse cx="275.0" cy="847.0" rx="57.5" ry="11.0" fill="#eff6ff" stroke="#2563eb" stroke-width="2.2"/>
  <ellipse cx="275.0" cy="803.44" rx="57.5" ry="11.0" fill="none" stroke="#2563eb" stroke-opacity="0.45" stroke-width="1.2"/>
  <ellipse cx="275.0" cy="822.8" rx="57.5" ry="11.0" fill="none" stroke="#2563eb" stroke-opacity="0.25" stroke-width="1.2"/>
  <text x="275.0" y="808.0" text-anchor="middle" class="node-title">PostgreSQL</text>
  <text x="275.0" y="832.0" text-anchor="middle" class="node-sub">config, audit, alarm, metadata</text>
  <rect x="500.0" y="772.0" width="310.0" height="84.0" rx="10.0" fill="#f0fdf4" stroke="#22c55e" stroke-width="1.8" filter="url(#shadowSoft)"/>
  <text x="655.0" y="790.0" text-anchor="middle" class="node-type">OTEL / PROM / GRAFANA</text>
  <text x="655.0" y="820.0" text-anchor="middle" class="node-title">Observability Stack</text>
  <text x="655.0" y="842.0" text-anchor="middle" class="node-sub">metrics, traces, dashboards, alerts</text>
  <rect x="930.0" y="772.0" width="280.0" height="84.0" rx="10.0" fill="#ffffff" stroke="#cbd5e1" stroke-width="2.0" filter="url(#shadowSoft)"/>
  <rect x="930.0" y="772.0" width="280.0" height="18" rx="10.0" fill="#1f2937" opacity="0.95"/>
  <circle cx="946.0" cy="781.0" r="4" fill="#ef4444"/>
  <circle cx="960.0" cy="781.0" r="4" fill="#f59e0b"/>
  <circle cx="974.0" cy="781.0" r="4" fill="#10b981"/>
  <text x="948.0" y="816.0" font-size="28" font-weight="700" fill="#22c55e">$</text>
  <text x="968.0" y="816.0" font-size="22" font-weight="500" fill="#6b7280">_</text>
  <text x="1070.0" y="790.0" text-anchor="middle" class="node-type">DEPLOYMENT</text>
  <text x="1070.0" y="842.0" text-anchor="middle" class="node-title">Docker Compose</text>
  <text x="1070.0" y="876.0" text-anchor="middle" class="node-sub">single-site edge rollout</text>
  <path d="M 1290.0 768.0 L 1442.0 768.0 L 1460.0 786.0 L 1460.0 852.0 L 1290.0 852.0 Z" fill="#faf5ff" stroke="#8b5cf6" stroke-width="2.0" filter="url(#shadowSoft)"/>
  <path d="M 1442.0 768.0 L 1442.0 786.0 L 1460.0 786.0" fill="none" stroke="#8b5cf6" stroke-width="2.0"/>
  <line x1="1308.0" y1="794.0" x2="1432.0" y2="794.0" stroke="#c4b5fd" stroke-width="1.2"/>
  <line x1="1308.0" y1="808.0" x2="1432.0" y2="808.0" stroke="#c4b5fd" stroke-width="1.2"/>
  <line x1="1308.0" y1="822.0" x2="1432.0" y2="822.0" stroke="#c4b5fd" stroke-width="1.2"/>
  <line x1="1308.0" y1="836.0" x2="1432.0" y2="836.0" stroke="#c4b5fd" stroke-width="1.2"/>
  <text x="1375.0" y="878.0" text-anchor="middle" class="node-title">Config / Secrets</text>
  <text x="1375.0" y="896.0" text-anchor="middle" class="node-sub">env, volumes, certs</text>
  <rect x="574.5" y="273.0" width="91" height="20" rx="6" fill="#ffffff" opacity="0.94"/>
  <text x="620.0" y="287.0" text-anchor="middle" class="arrow-label">HTTPS / WSS</text>
  <rect x="729.5" y="203.0" width="91" height="20" rx="6" fill="#ffffff" opacity="0.94"/>
  <text x="775.0" y="217.0" text-anchor="middle" class="arrow-label">HTTPS / WSS</text>
  <rect x="545.5" y="256.4" width="84" height="20" rx="6" fill="#ffffff" opacity="0.94"/>
  <text x="587.5" y="270.4" text-anchor="middle" class="arrow-label">REST entry</text>
  <rect x="795.5" y="240.4" width="84" height="20" rx="6" fill="#ffffff" opacity="0.94"/>
  <text x="837.5" y="254.4" text-anchor="middle" class="arrow-label">WS upgrade</text>
  <rect x="250.5" y="474.5" width="119" height="20" rx="6" fill="#ffffff" opacity="0.94"/>
  <text x="310.0" y="488.5" text-anchor="middle" class="arrow-label">command / query</text>
  <rect x="466.5" y="474.5" width="147" height="20" rx="6" fill="#ffffff" opacity="0.94"/>
  <text x="540.0" y="488.5" text-anchor="middle" class="arrow-label">subscribe / publish</text>
  <rect x="641.5" y="496.5" width="182" height="20" rx="6" fill="#ffffff" opacity="0.94"/>
  <text x="732.5" y="510.5" text-anchor="middle" class="arrow-label">standard device contract</text>
  <rect x="781.8" y="575.0" width="161" height="20" rx="6" fill="#ffffff" opacity="0.94"/>
  <text x="862.3" y="589.0" text-anchor="middle" class="arrow-label">multi-protocol bridge</text>
  <rect x="742.0" y="561.0" width="119" height="20" rx="6" fill="#ffffff" opacity="0.94"/>
  <text x="801.5" y="575.0" text-anchor="middle" class="arrow-label">legacy fallback</text>
  <rect x="950.75" y="486.4" width="56" height="20" rx="6" fill="#ffffff" opacity="0.94"/>
  <text x="978.75" y="500.4" text-anchor="middle" class="arrow-label">OPC UA</text>
  <rect x="1292.25" y="486.4" width="133" height="20" rx="6" fill="#ffffff" opacity="0.94"/>
  <text x="1358.75" y="500.4" text-anchor="middle" class="arrow-label">Modbus / S7 / EIP</text>
  <rect x="1120.0" y="605.2" width="91" height="20" rx="6" fill="#ffffff" opacity="0.94"/>
  <text x="1165.5" y="619.2" text-anchor="middle" class="arrow-label">FOCAS / SDK</text>
  <rect x="154.0" y="696.7" width="126" height="20" rx="6" fill="#ffffff" opacity="0.94"/>
  <text x="217.0" y="710.7" text-anchor="middle" class="arrow-label">stateful records</text>
  <rect x="402.0" y="496.4" width="126" height="20" rx="6" fill="#ffffff" opacity="0.94"/>
  <text x="465.0" y="510.4" text-anchor="middle" class="arrow-label">metrics / traces</text>
  <rect x="694.5" y="737.6" width="56" height="20" rx="6" fill="#ffffff" opacity="0.94"/>
  <text x="722.5" y="751.6" text-anchor="middle" class="arrow-label">deploy</text>
  <rect x="1257.0" y="593.8" width="56" height="20" rx="6" fill="#ffffff" opacity="0.94"/>
  <text x="1285.0" y="607.8" text-anchor="middle" class="arrow-label">deploy</text>
  <rect x="1186.7" y="796.0" width="147" height="20" rx="6" fill="#ffffff" opacity="0.94"/>
  <text x="1260.2" y="810.0" text-anchor="middle" class="arrow-label">env / cert / volume</text>
  <rect x="32.0" y="804.0" width="296" height="112" rx="10" fill="#ffffff" opacity="0.88"/>
  <line x1="42.0" y1="818.0" x2="72.0" y2="818.0" stroke="#2563eb" stroke-width="2.4" marker-end="url(#arrowC)"/>
  <text x="82.0" y="822.0" class="legend">HTTP / HTTPS / WSS</text>
  <line x1="42.0" y1="840.0" x2="72.0" y2="840.0" stroke="#6b7280" stroke-width="2.4" marker-end="url(#arrowH)"/>
  <text x="82.0" y="844.0" class="legend">Runtime internal link</text>
  <line x1="42.0" y1="862.0" x2="72.0" y2="862.0" stroke="#f97316" stroke-width="2.4" marker-end="url(#arrowE)"/>
  <text x="82.0" y="866.0" class="legend">Machine telemetry / command path</text>
  <line x1="42.0" y1="884.0" x2="72.0" y2="884.0" stroke="#10b981" stroke-width="2.4" marker-end="url(#arrowB)"/>
  <text x="82.0" y="888.0" class="legend">Ops / deploy / observability</text>
  <text x="-99.0" y="924.0" class="footnote">Protocol policy: OPC UA first; use gateway for multi-protocol legacy devices; use vendor SDK only when standard access is not enough. Deploy with Docker Compose first, move to Kubernetes only when multi-site or service count grows.</text>
</svg>